<svg xmlns="http://www.w3.org/2000/svg" width="40.568" height="32.914" viewBox="0 0 40.568 32.914">
  <path id="Trazado_1405" data-name="Trazado 1405" d="M173.026,219.7l.342.342-.077.078-.342-.342-.342.342-.077-.078.342-.342-.342-.342.077-.077.342.342.342-.342.077.077Zm20.025-.342-.077-.077-.342.342-.342-.342-.077.077.342.342-.342.342.077.078.342-.342.342.342.077-.078-.342-.342Zm-18.666-.077-.342.342-.342-.342-.077.077.342.342-.342.342.077.078.342-.342.342.342.078-.078-.342-.342.342-.342.331-.331.342-.342.342.342.077-.077-.342-.342.342-.342-.077-.077-.342.342-.342-.342-.077.077.342.342-.342.342Zm1.093,0-.342.342-.342-.342-.077.077.342.342-.342.342.077.077.342-.342.342.342.077-.077-.342-.342.342-.342.331-.331.342-.342.342.342.077-.077-.342-.342.342-.342-.077-.077-.342.342-.342-.342-.077.077.342.342-.342.342Zm1.093,0-.342.342-.342-.342-.077.077.342.342-.342.342.077.078.342-.342.342.342.077-.078-.342-.342.342-.342.331-.331.342-.342.342.342.077-.077-.342-.342.342-.342-.077-.077-.342.342-.342-.342-.078.077.342.342-.342.342Zm2.187-1.093-.342.342-.342-.342-.077.077.342.342-.342.342-.331.331-.342.342-.342-.342-.077.077.342.342-.342.342.077.078.342-.342.342.342.077-.078-.342-.342.342-.342.331-.331.342-.342.342.342.078-.077-.342-.342.342-.342.331-.331.342-.342.342.342.077-.077-.342-.342.342-.342-.077-.077-.342.342-.342-.342-.078.077.342.342-.342.342Zm1.093,0-.342.342-.342-.342-.077.077.342.342-.342.342-.331.331-.342.342-.342-.342-.077.077.342.342-.342.342.077.078.342-.342.342.342.077-.078-.342-.342.342-.342.331-.331.342-.342.342.342.077-.077-.342-.342.342-.342.331-.331.342-.342.342.342.077-.077-.342-.342.342-.342-.077-.077-.342.342-.342-.342-.078.077.342.342-.342.342Zm1.093,0-.342.342-.342-.342-.077.077.342.342-.342.342-.331.331-.342.342-.342-.342-.077.077.342.342-.342.342.077.078.342-.342.342.342.077-.078-.342-.342.342-.342.331-.331.342-.342.342.342.077-.077-.342-.342.342-.342.331-.331.342-.342.342.342.077-.077-.342-.342.342-.342-.077-.077-.342.342-.342-.342-.077.077.342.342-.342.342Zm1.094,0-.342.342-.342-.342-.077.077.342.342-.342.342-.331.331-.342.342-.342-.342-.077.077.342.342-.342.342.077.078.342-.342.342.342.077-.078-.342-.342.342-.342.331-.331.342-.342.342.342.077-.077-.342-.342.342-.342.331-.331.342-.342.342.342.077-.077-.342-.342.342-.342-.077-.077-.342.342-.342-.342-.077.077.342.342-.342.342Zm1.093,0-.342.342-.342-.342-.077.077.342.342-.342.342-.331.331-.342.342-.342-.342-.077.077.342.342-.342.342.077.078.342-.342.342.342.077-.078-.342-.342.342-.342.331-.331.342-.342.342.342.077-.077-.342-.342.342-.342.331-.331.342-.342.342.342.077-.077-.342-.342.342-.342-.077-.077-.342.342-.342-.342-.077.077.342.342-.342.342Zm1.093,0-.342.342-.342-.342-.077.077.342.342-.342.342-.331.331-.342.342-.342-.342-.077.077.342.342-.342.342.077.078.342-.342.342.342.077-.078-.342-.342.342-.342.331-.331.342-.342.342.342.077-.077-.342-.342.342-.342.331-.331.342-.342.342.342.077-.077-.342-.342.342-.342-.077-.077-.342.342-.342-.342-.077.077.342.342-.342.342Zm1.094,0-.342.342-.342-.342-.077.077.342.342-.342.342-.331.331-.342.342-.342-.342-.077.077.342.342-.342.342.077.078.342-.342.342.342.077-.078-.342-.342.342-.342.331-.331.342-.342.342.342.077-.077-.342-.342.342-.342.331-.331.342-.342.342.342.077-.077-.342-.342.342-.342-.077-.077-.342.342-.342-.342-.077.077.342.342-.342.342Zm1.093,0-.342.342-.342-.342-.077.077.342.342-.342.342-.331.331-.342.342-.342-.342-.077.077.342.342-.342.342.077.078.342-.342.342.342.077-.078-.342-.342.342-.342.331-.331.342-.342.342.342.077-.077-.342-.342.342-.342.331-.331.342-.342.342.342.077-.077-.342-.342.342-.342-.077-.077-.342.342-.342-.342-.077.077.342.342-.342.342Zm1.093,1.093-.342.342-.342-.342-.077.077.342.342-.342.342.077.078.342-.342.342.342.077-.078-.342-.342.342-.342.331-.331.342-.342.342.342.077-.077-.342-.342.342-.342-.077-.077-.342.342-.342-.342-.077.077.342.342-.342.342Zm-1.093,0-.342.342-.342-.342-.077.077.342.342-.342.342.077.077.342-.342.342.342.077-.077-.342-.342.342-.342.331-.331.342-.342.342.342.077-.077-.342-.342.342-.342-.077-.077-.342.342-.342-.342-.077.077.342.342-.342.342Zm2.187,0-.342.342-.342-.342-.077.077.342.342-.342.342.077.078.342-.342.342.342.077-.078-.342-.342.342-.342.331-.331.342-.342.342.342.077-.077-.342-.342.342-.342-.077-.077-.342.342-.342-.342-.077.077.342.342-.342.342Zm1.093,0-.342.342-.342-.342-.077.077.342.342-.342.342.077.078.342-.342.342.342.077-.078-.342-.342.342-.342.331-.331.342-.342.342.342.077-.077-.342-.342.342-.342-.077-.077-.342.342-.342-.342-.077.077.342.342-.342.342Zm1.094,0-.342.342-.342-.342-.077.077.342.342-.342.342.077.078.342-.342.342.342.078-.078-.342-.342.342-.342.331-.331.342-.342.342.342.077-.077-.342-.342.342-.342-.077-.077-.342.342-.342-.342-.077.077.342.342-.342.342Zm-16.324-1.016-.078-.077-.342.342-.342-.342-.077.077.342.342-.342.342.077.077.342-.342.342.342.078-.077-.342-.342Zm17.5,1.094-.077-.077-.342.342-.342-.342-.077.077.342.342-.342.342.077.077.342-.342.342.342.077-.077-.342-.342Zm3.462-11.084h0Zm6.561-6.56v.983h1.093v1.2h-1.093v3.28h-1.093v1.094h-1.093v.983h1.093v1.2H198.7v1.094h-1.093v1.093h-1.093v1.093H195.42v.983h1.094v1.2H195.42v3.28h-1.093v1.093h-1.093v2.187H172.347v-2.187h-1.093v-1.093H170.16v-3.28h-1.094v-1.2h1.094v-.983h-1.094v-1.093h-1.093v-1.093H166.88v-1.094h-2.187v-1.2h1.093v-.983h-1.093v-1.094H163.6V203.9h-1.093v-1.2H163.6v-.983h-1.093v-1.2h1.2v1.094h.983V199.42h1.2v1.093h.983v-2.187h1.2v1.093h.983v-1.093h1.2v2.187h.983V199.42h1.093v-.983h-1.093v-1.2h1.2v1.094h.983V196.14h1.2v1.093h.983V196.14h1.2v1.2h-1.093v.983h2.076v-1.094h1.2v1.093h2.076v-.983H180v-1.2h2.187v-.983h-3.28v-1.2H180v-1.093h1.093v-2.187h1.093v-1.093h1.2v1.093h1.093v2.187h1.093v1.093h1.094v1.2h-3.28v.983h2.187v1.2h-1.093v.983h2.076v-1.093h1.2v1.094h2.076v-.983h-1.093v-1.2h1.2v1.093h.983V196.14h1.2v2.187h.983v-1.094h1.2v1.2h-1.093v.983h1.093v1.094h.983v-2.187h1.2v1.093h.983v-1.093h1.2v2.187h.983V199.42h1.2v2.187h.983v-1.094h1.2v1.2Zm-18.589-3.28v2.076h1.093v2.3h-1.093v.983h1.093v3.281h.983v-1.094h1.2v1.093h1.093v2.3h-1.2v-2.3h-.983v1.2h-1.093v2.076h-1.093v1.093h4.374v1.094h2.076v-.983h-1.093v-1.2h2.187v-2.076h-.983v1.093h-1.2v-2.3h2.187v-1.093h1.093v-1.093h2.187V203.9h-1.094v-4.374h-1.093v-1.093h-2.076v1.093h-5.578v-1.093Zm8.748,7.654v.983h.983v-.983Zm-.111,8.637v-.983h-.983v.983Zm-.983,1.2v.983h.983v-.983Zm-1.093-1.093v.983h.983v-.983Zm-.111-.111v-.983h-.983v.983Zm-.983,1.2v.983h.983v-.983Zm-1.093-1.094v.983h.983v-.983Zm-1.093-1.093v.983h.983v-.983Zm-.111-.111v-.983h-.983v.983Zm-.983,1.2v.983h.983v-.983Zm-2.187-1.094v.983h2.076v-.983Zm0-20.776v.983h.983v-.983Zm0,14.1h-.111v1.2h1.094v-1.2Zm-1.093-9.731v.983h.983v-.983Zm0,5.357h.983v-.983H182.3Zm0,3.28h.983V205H182.3Zm.983,7.654v-.983H182.3v.983Zm-.983,1.2v.983h.983v-.983Zm-.111-20.886v-.983h-.983v.983Zm-.983,13.122v1.2H182.3v-1.2Zm.983,6.671h-2.076v.983h2.076Zm-10.824-8.858h2.187v1.093h1.093v1.093h2.187v2.3h-1.2v-1.093h-.983v2.076h2.187v1.2h-1.093v.983h2.076v-1.094h4.374v-1.093h-1.093v-2.076H180v-1.2h-.983v2.3h-1.2v-2.3h1.093v-1.093h1.2v1.094h.983v-3.281h1.093v-.983h-1.093v-2.3h1.093v-2.076h-.983v1.093h-5.578v-1.093h-2.076v1.093h-1.093V203.9h-1.094ZM180,213.635v-.983h-.983v.983Zm-.983,1.2v.983H180v-.983Zm-1.093-1.094v.983h.983v-.983Zm-1.093,1.093v.983h.983v-.983Zm-.111-.111v-.983h-.983v.983Zm-.983,1.2v.983h.983v-.983Zm-1.094-1.094v.983h.983v-.983Zm-2.187-8.748v.983h.983v-.983Zm-2.187,6.45v1.093h3.17v-1.093h1.093v-.983h-2.187v-1.2h1.093v-.983h-2.076v1.093h-1.2v-2.3h2.186v-.983h-1.093V205H170.16v-4.374h-3.17v1.093H165.9v5.357h1.093v2.187h1.093v1.094h1.094v2.187Zm4.263,2.187v-.983h-.983v.983Zm-.983,1.2v.983h.983v-.983Zm-.111-.111v-.983h-.983v.983Zm-.983,1.2v.984h.983v-.984Zm-1.2-2.187h-.983v.983h.983Zm1.093,1.093h-.983v.983h.983Zm20.776,3.28h-1.093v-1.093h-4.374v-1.094h-9.731v1.094h-4.374v1.093h-1.093v.983h20.665Zm0-2.187h-.983v.983h.983Zm0-2.187h-.983v.983h.983Zm1.094,1.093h-.983v.983h.983Zm1.093-1.093h-.983v.983h.983Zm4.374-13.121H198.59v-1.093h-3.17V205h-1.093v2.187h-1.093v.983h2.186v2.3h-1.2v-1.093H192.14v.983h1.093v1.2h-2.187v.983h1.093v1.093h3.17v-1.093H196.4v-2.187H197.5v-1.094h1.093v-2.187h1.093Zm-20.847,15.458-.078-.077-.342.342-.342-.342-.077.077.342.342-.342.342.077.077.342-.342.342.342.078-.077-.342-.342Z" transform="translate(-162.506 -189.579)"/>
</svg>
