<svg class="moro-intro" data-name="moro-welcome" xmlns="http://www.w3.org/2000/svg" viewBox="0 0 1417.32 284.51" fill="currentColor"><defs><clipPath id="a"><path style="fill:currentColor" d="M14.17 14.17h1388.98v256.16H14.17z"/></clipPath></defs><g style="clip-path:url(#a)"><path d="M503.84 78c-48.28-48.25-120.14-38.54-160.49 1.79-41.87 41.89-44.75 114-.66 158.06 48.28 48.27 120.15 38.58 160.48-1.76 41.89-41.88 44.76-114 .67-158.06m-31.31 140.2c-39.89 39.9-87.95 47.38-120.12 15.21-37.7-37.69-11.92-102.28 21.59-135.78 39.89-39.91 88-47.41 120.13-15.23 37.7 37.7 11.9 102.29-21.6 135.8M681.22 157.63c24.33-7.17 44.28-26.82 44.28-53.32 0-22.12-13.1-55.16-72-55.16-20 0-30.87.63-41.78.63-6.32 0-12.6-.07-19-.16v216.62c5.6-.07 11.19-.13 16.83-.13 4.58 0 9.15.09 13.72.18V163.87h28.37c22.44 35.22 43.33 71.7 71.71 102.87 8.72-.31 17.76-.63 26.49-.63 2.6 0 5.2.09 7.81.18-21.07-28.47-55-77.32-76.4-108.66m-41.46-3.74a92.35 92.35 0 0 1-16.52-1.57V61a102.56 102.56 0 0 1 18.7-1.86c36.8 0 51.12 19.94 51.12 47.06 0 22.45-14.95 47.7-53.3 47.7M988.56 78c-48.27-48.25-120.13-38.54-160.47 1.8-41.88 41.87-44.74 114-.67 158 48.29 48.29 120.14 38.58 160.49-1.75 41.88-41.89 44.74-114 .65-158.06M837.13 233.44c-37.7-37.7-11.9-102.28 21.59-135.79 39.91-39.89 88-47.39 120.15-15.2 37.7 37.68 11.91 102.27-21.6 135.78-39.89 39.91-87.94 47.38-120.14 15.21M1147.56 149.84v-.63c24-5.61 50.19-20.58 50.19-49.57 0-43.95-49.57-50.5-72.64-50.5-11.22 0-22.76.63-40.52.63h-7.17v216.47c4.14-.06 8.3-.13 12.47-.13 14.66 0 29.29.63 44 .63 55.17 0 83.84-25.25 83.84-58.61 0-43.95-46.75-59.55-70.13-58.29m-39.6-90.1c4.68-.31 9-.62 13.09-.62 24.94 0 46.13 5.29 46.13 41.16 0 39.27-22.12 47.37-47.38 47.37H1108Zm28.06 197c-28.06 0-28.06-11.52-28.06-25.55v-73.56h18.71c30.85 0 58.6 10 58.6 54.56 0 19.32-12.17 44.57-49.25 44.57M1298.44 256.76v-96.32h72.41v-12.79h-72.4V59.12H1391v-9.45h-123.11v216.58H1401c.64-3.34 1.39-6.17 2.15-9.49Z"/></g><path d="m1391.01 14.18-123.13 9.76v9.44l123.13-9.77v-9.43z"/><path d="M223 49.76c-14 31.92-55.9 118.78-91.44 191.74L40.05 49.71H14.17v216.46c2.09 0 0-.06 1.23-.06 2.3 0 7.34 0 9.65.08V92.79h.64c29.14 58 58.56 115.38 84.75 174h21a5.76 5.76 0 0 0 .21-.55l87-180.26h.61v180.3l29.16-.06V49.77Z" style="clip-path:url(#a)"/></svg>